<svg xmlns="http://www.w3.org/2000/svg" xmlns:xlink="http://www.w3.org/1999/xlink" viewBox="0 0 48 48"><defs><style>.cls-1{fill:none;}.cls-2{fill:#4fd971;}.cls-3{clip-path:url(#clip-path);}.cls-4{fill:#fff;}</style><clipPath id="clip-path"><rect class="cls-1" width="48" height="48" rx="1.56"/></clipPath></defs><g id="Camada_2" data-name="Camada 2"><g id="Camada_1-2" data-name="Camada 1"><rect class="cls-2" width="48" height="48" rx="1.56"/><g class="cls-3"><path class="cls-4" d="M30.55,46.47H17.45a1.51,1.51,0,1,0,0,3h13.1a1.51,1.51,0,1,0,0-3Z"/><path class="cls-4" d="M30.85,39.16l-9.72,5.61a.1.1,0,0,0,.05.19h9.37a1.52,1.52,0,0,0,1.51-1.51V39.86A.81.81,0,0,0,30.85,39.16Z"/><path class="cls-4" d="M41.42,7.59A20.17,20.17,0,1,0,14.34,35.5,3,3,0,0,1,16,38.17v6.18a.81.81,0,0,0,1.21.7L34,35.35A20.35,20.35,0,0,0,41.42,7.59Zm-.88,14.52a17.22,17.22,0,0,1-8.09,10.62L19,40.52V38.17a6.07,6.07,0,0,0-3.18-5.32,17.16,17.16,0,1,1,23-23.73A16.91,16.91,0,0,1,40.54,22.11Z"/><path class="cls-4" d="M18.31,22.16a11.13,11.13,0,0,0,6,2.08c1.61,0,2.46-.57,2.46-1.52,0-2.79-9.74-2.3-9.74-8.45,0-3.38,2.88-5.57,7.35-5.57a9,9,0,0,1,6.76,2.84l-2.44,2.82a7.37,7.37,0,0,0-4.64-1.69c-1.49,0-2.32.56-2.32,1.53,0,2.38,9.75,2.08,9.75,8.17,0,3.3-2.8,5.84-7.9,5.84a12.38,12.38,0,0,1-7.45-2.71Zm4.23-17.7H25.8v5.78H22.54ZM25.8,26.2V33H22.54V26.2Z"/></g></g></g></svg>