<svg width="41" height="37" viewBox="0 0 41 37" fill="none" xmlns="http://www.w3.org/2000/svg">
<path d="M19.0898 34.8724L18.51 35.8153L18.5144 35.8179L19.0898 34.8724ZM21.0251 34.8724L21.6005 35.818L21.6049 35.8153L21.0251 34.8724ZM20.0575 7.10273L19.1704 7.76464C19.3793 8.04464 19.7081 8.20957 20.0575 8.20957C20.4068 8.20957 20.7356 8.04464 20.9446 7.76464L20.0575 7.10273ZM10.6078 0.324741C4.78881 0.324741 0.0513644 4.99908 0.0513644 10.789H2.26504C2.26504 6.24226 5.99069 2.53842 10.6078 2.53842V0.324741ZM0.0513644 10.789C0.0513644 13.0353 0.500243 16.7511 3.06079 21.1943C5.61771 25.6312 10.2456 30.7333 18.51 35.8153L19.6696 33.9296C11.6562 29.002 7.31818 24.1484 4.97878 20.089C2.64301 16.0359 2.26504 12.7147 2.26504 10.789H0.0513644ZM18.5144 35.8179C18.9793 36.1009 19.5132 36.2506 20.0575 36.2506V34.0369C19.9191 34.0369 19.7835 33.9989 19.6652 33.9269L18.5144 35.8179ZM20.0575 36.2506C20.6018 36.2506 21.1356 36.1009 21.6005 35.8179L20.4497 33.9269C20.3315 33.9989 20.1958 34.0369 20.0575 34.0369V36.2506ZM21.6049 35.8153C29.8694 30.7333 34.4972 25.6312 37.0541 21.1943C39.6147 16.7511 40.0635 13.0353 40.0635 10.789H37.8499C37.8499 12.7147 37.4719 16.0359 35.1361 20.089C32.7967 24.1484 28.4588 29.002 20.4453 33.9296L21.6049 35.8153ZM40.0635 10.789C40.0635 4.99908 35.3261 0.324741 29.5071 0.324741V2.53842C34.1242 2.53842 37.8499 6.24226 37.8499 10.789H40.0635ZM29.5071 0.324741C26.5126 0.324741 23.9004 1.93825 22.1191 3.41506C21.2127 4.1665 20.4819 4.91541 19.9773 5.4764C19.7243 5.75761 19.5265 5.99349 19.3902 6.1614C19.322 6.24541 19.269 6.31256 19.2322 6.36002C19.2137 6.38376 19.1993 6.4026 19.189 6.41617C19.1838 6.42296 19.1796 6.42844 19.1765 6.43256C19.175 6.43462 19.1737 6.43634 19.1727 6.43772C19.1721 6.43841 19.1717 6.43901 19.1713 6.43952C19.1711 6.43978 19.1709 6.4401 19.1708 6.44023C19.1706 6.44053 19.1704 6.44081 20.0575 7.10273C20.9446 7.76464 20.9444 7.76488 20.9442 7.76509C20.9442 7.76513 20.9441 7.76533 20.944 7.76541C20.9439 7.76558 20.9438 7.76567 20.9438 7.76567C20.9438 7.76567 20.944 7.76534 20.9445 7.76467C20.9455 7.76334 20.9476 7.76068 20.9506 7.75674C20.9566 7.74886 20.9665 7.73585 20.9803 7.71805C21.008 7.68245 21.0511 7.62775 21.1088 7.55669C21.2242 7.41446 21.3978 7.20728 21.6231 6.95682C22.0749 6.45448 22.7282 5.78559 23.5319 5.11925C25.1709 3.76049 27.2835 2.53842 29.5071 2.53842V0.324741ZM20.0575 7.10273C20.9446 6.44081 20.9444 6.44053 20.9441 6.44023C20.944 6.4401 20.9438 6.43978 20.9436 6.43952C20.9432 6.43901 20.9428 6.43841 20.9422 6.43772C20.9412 6.43634 20.9399 6.43462 20.9384 6.43256C20.9353 6.42844 20.9311 6.42296 20.926 6.41617C20.9156 6.4026 20.9012 6.38376 20.8827 6.36002C20.8459 6.31256 20.7929 6.24541 20.7247 6.1614C20.5884 5.99349 20.3906 5.75761 20.1377 5.4764C19.633 4.91541 18.9022 4.1665 17.9958 3.41506C16.2145 1.93825 13.6023 0.324741 10.6078 0.324741V2.53842C12.8314 2.53842 14.9441 3.76049 16.583 5.11925C17.3868 5.78559 18.04 6.45448 18.4918 6.95682C18.7171 7.20728 18.8907 7.41446 19.0061 7.55669C19.0638 7.62775 19.1069 7.68245 19.1346 7.71805C19.1484 7.73585 19.1584 7.74886 19.1644 7.75674C19.1674 7.76068 19.1694 7.76334 19.1704 7.76467C19.1709 7.76534 19.1711 7.76567 19.1711 7.76567C19.1711 7.76567 19.1711 7.76558 19.1709 7.76541C19.1709 7.76533 19.1707 7.76513 19.1707 7.76509C19.1705 7.76488 19.1704 7.76464 20.0575 7.10273Z" fill="#85E29C"/>
</svg>
