<svg width="27" height="27" viewBox="0 0 27 27" fill="none" xmlns="http://www.w3.org/2000/svg">
<path d="M0 3.53105C0 2.59456 0.355579 1.69642 0.988515 1.03422C1.62145 0.37202 2.47989 0 3.375 0H23.625C24.5201 0 25.3785 0.37202 26.0115 1.03422C26.6444 1.69642 27 2.59456 27 3.53105V17.6553C27 18.5918 26.6444 19.4899 26.0115 20.1521C25.3785 20.8143 24.5201 21.1863 23.625 21.1863H7.44863C7.00111 21.1864 6.57196 21.3725 6.25556 21.7036L1.44112 26.7407C1.32322 26.8643 1.1729 26.9486 1.00919 26.9829C0.845473 27.0171 0.675728 26.9998 0.521436 26.9331C0.367144 26.8663 0.235241 26.7532 0.14242 26.608C0.0496 26.4628 3.54626e-05 26.2921 0 26.1174V3.53105ZM8.4375 10.5932C8.4375 10.1249 8.25971 9.67584 7.94324 9.34474C7.62677 9.01364 7.19755 8.82763 6.75 8.82763C6.30245 8.82763 5.87322 9.01364 5.55676 9.34474C5.24029 9.67584 5.0625 10.1249 5.0625 10.5932C5.0625 11.0614 5.24029 11.5105 5.55676 11.8416C5.87322 12.1727 6.30245 12.3587 6.75 12.3587C7.19755 12.3587 7.62677 12.1727 7.94324 11.8416C8.25971 11.5105 8.4375 11.0614 8.4375 10.5932ZM15.1875 10.5932C15.1875 10.1249 15.0097 9.67584 14.6932 9.34474C14.3768 9.01364 13.9476 8.82763 13.5 8.82763C13.0524 8.82763 12.6232 9.01364 12.3068 9.34474C11.9903 9.67584 11.8125 10.1249 11.8125 10.5932C11.8125 11.0614 11.9903 11.5105 12.3068 11.8416C12.6232 12.1727 13.0524 12.3587 13.5 12.3587C13.9476 12.3587 14.3768 12.1727 14.6932 11.8416C15.0097 11.5105 15.1875 11.0614 15.1875 10.5932ZM20.25 12.3587C20.6976 12.3587 21.1268 12.1727 21.4432 11.8416C21.7597 11.5105 21.9375 11.0614 21.9375 10.5932C21.9375 10.1249 21.7597 9.67584 21.4432 9.34474C21.1268 9.01364 20.6976 8.82763 20.25 8.82763C19.8024 8.82763 19.3732 9.01364 19.0568 9.34474C18.7403 9.67584 18.5625 10.1249 18.5625 10.5932C18.5625 11.0614 18.7403 11.5105 19.0568 11.8416C19.3732 12.1727 19.8024 12.3587 20.25 12.3587Z" fill="#FE8537"/>
</svg>
