<svg width="17" height="18" viewBox="0 0 17 18" fill="none" xmlns="http://www.w3.org/2000/svg">
<path d="M15.8593 0.65625H0.972457C0.727495 0.65625 0.492567 0.753561 0.319353 0.926775C0.146139 1.09999 0.0488281 1.33492 0.0488281 1.57988V16.4669C0.0488898 16.7119 0.146228 16.9467 0.319435 17.1199C0.492642 17.2931 0.727536 17.3903 0.972457 17.3903H8.98692V10.9101H6.80615V8.38461H8.98692V6.52201C8.98692 4.36053 10.3071 3.18379 12.2352 3.18379C13.1588 3.18379 13.9525 3.25236 14.184 3.28327V5.54214L12.8467 5.54284C11.798 5.54284 11.5951 6.04114 11.5951 6.77233V8.38484H14.0959L13.7703 10.9103H11.5951V17.3903H15.8595C16.1044 17.3903 16.3393 17.2929 16.5125 17.1197C16.6856 16.9465 16.7829 16.7116 16.7829 16.4667V1.57988C16.7829 1.33492 16.6856 1.09999 16.5124 0.926775C16.3392 0.753561 16.1042 0.65625 15.8593 0.65625Z" fill="#B5B5B5"/>
</svg>
