<svg width="17" height="17" viewBox="0 0 17 17" fill="none" xmlns="http://www.w3.org/2000/svg">
<path d="M8.41587 6.40333C8.02184 6.40348 7.63671 6.52045 7.30916 6.73947C6.98161 6.95849 6.72635 7.26971 6.57567 7.63379C6.42498 7.99787 6.38563 8.39845 6.46259 8.78489C6.53955 9.17133 6.72937 9.52627 7.00804 9.80484C7.28672 10.0834 7.64173 10.2731 8.0282 10.3499C8.41466 10.4267 8.81523 10.3872 9.17925 10.2364C9.54327 10.0856 9.8544 9.83021 10.0733 9.50257C10.2922 9.17494 10.409 8.78976 10.409 8.39573C10.4086 7.86731 10.1985 7.36065 9.82476 6.98706C9.45104 6.61348 8.9443 6.40353 8.41587 6.40333ZM13.0742 4.87186C12.9727 4.61481 12.8196 4.38135 12.6242 4.18595C12.4288 3.99055 12.1953 3.83739 11.9382 3.73596C11.1538 3.4263 9.28619 3.49578 8.41587 3.49578C7.54555 3.49578 5.67977 3.42369 4.89312 3.73596C4.63608 3.83739 4.40261 3.99055 4.20721 4.18595C4.01182 4.38135 3.85865 4.61481 3.75722 4.87186C3.44794 5.65627 3.51704 7.52578 3.51704 8.39536C3.51704 9.26493 3.44794 11.1322 3.75872 11.9192C3.86015 12.1763 4.01331 12.4097 4.20871 12.6051C4.40411 12.8005 4.63757 12.9537 4.89462 13.0551C5.67903 13.3648 7.54667 13.2953 8.41737 13.2953C9.28806 13.2953 11.1531 13.3674 11.9397 13.0551C12.1968 12.9537 12.4303 12.8005 12.6257 12.6051C12.8211 12.4097 12.9742 12.1763 13.0756 11.9192C13.3875 11.1348 13.3158 9.26531 13.3158 8.39573C13.3158 7.52616 13.3875 5.65926 13.0756 4.87223L13.0742 4.87186ZM8.41587 11.4587C7.81008 11.4587 7.21789 11.279 6.7142 10.9425C6.2105 10.6059 5.81792 10.1275 5.58609 9.56787C5.35426 9.00819 5.29361 8.39233 5.41179 7.79818C5.52997 7.20403 5.82169 6.65827 6.25005 6.22991C6.67841 5.80155 7.22417 5.50983 7.81832 5.39165C8.41248 5.27346 9.02833 5.33412 9.58801 5.56595C10.1477 5.79777 10.6261 6.19036 10.9626 6.69406C11.2992 7.19775 11.4788 7.78994 11.4788 8.39573C11.4793 8.7981 11.4004 9.19661 11.2467 9.56845C11.0929 9.94028 10.8673 10.2781 10.5828 10.5627C10.2983 10.8472 9.96042 11.0728 9.58859 11.2265C9.21675 11.3803 8.81824 11.4592 8.41587 11.4587ZM11.6051 5.91924C11.4636 5.91931 11.3254 5.87744 11.2078 5.79893C11.0901 5.72042 10.9985 5.60878 10.9443 5.47815C10.8901 5.34752 10.8759 5.20376 10.9034 5.06505C10.931 4.92635 10.9991 4.79892 11.099 4.6989C11.199 4.59888 11.3264 4.53075 11.4651 4.50313C11.6038 4.47552 11.7475 4.48965 11.8782 4.54375C12.0089 4.59785 12.1205 4.68949 12.1991 4.80707C12.2777 4.92465 12.3196 5.06288 12.3196 5.2043C12.32 5.29821 12.3019 5.39128 12.2662 5.47815C12.2306 5.56503 12.1781 5.64402 12.1119 5.71058C12.0456 5.77714 11.9669 5.82997 11.8802 5.86603C11.7934 5.90209 11.7005 5.92068 11.6066 5.92073L11.6051 5.91924ZM14.99 0.0286865H1.84177C1.36625 0.0286865 0.910209 0.217585 0.573968 0.553826C0.237726 0.890067 0.0488281 1.34611 0.0488281 1.82162V14.9698C0.0488281 15.4454 0.237726 15.9014 0.573968 16.2376C0.910209 16.5739 1.36625 16.7628 1.84177 16.7628H14.99C15.4655 16.7628 15.9215 16.5739 16.2578 16.2376C16.594 15.9014 16.7829 15.4454 16.7829 14.9698V1.82162C16.7829 1.34611 16.594 0.890067 16.2578 0.553826C15.9215 0.217585 15.4655 0.0286865 14.99 0.0286865ZM14.3505 10.861C14.3023 11.8184 14.0838 12.6667 13.3849 13.3637C12.6861 14.0607 11.8385 14.2837 10.8823 14.3292C9.89579 14.3849 6.93819 14.3849 5.9517 14.3292C4.99435 14.2811 4.14905 14.0622 3.44906 13.3637C2.74907 12.6652 2.52906 11.8165 2.48349 10.861C2.42783 9.87416 2.42783 6.91618 2.48349 5.93044C2.53167 4.97309 2.74757 4.1248 3.44906 3.4278C4.15055 2.73079 4.99808 2.51041 5.9517 2.46484C6.93819 2.40919 9.89579 2.40919 10.8823 2.46484C11.8396 2.51303 12.6875 2.73191 13.3849 3.43041C14.0823 4.12891 14.3049 4.97757 14.3505 5.93492C14.4062 6.91805 14.4062 9.87341 14.3505 10.861Z" fill="#B5B5B5"/>
</svg>
