<svg width="16" height="21" viewBox="0 0 16 21" fill="none" xmlns="http://www.w3.org/2000/svg">
<path d="M4.58501 16.3976H12.0927V17.8817H4.58501V16.3976ZM6.08654 19.3658H10.5911V20.8498H6.08654V19.3658ZM8.33883 0.072998C6.34768 0.072998 4.43808 0.854776 3.03013 2.24635C1.62217 3.63792 0.831188 5.5253 0.831188 7.49329C0.780417 8.57171 0.98943 9.64663 1.44103 10.6296C1.89263 11.6126 2.57392 12.4756 3.42883 13.1475C4.1796 13.8376 4.58501 14.2309 4.58501 14.9136H6.08654C6.08654 13.5482 5.25319 12.784 4.44236 12.0493C3.74067 11.5183 3.18143 10.8252 2.81364 10.0309C2.44585 9.23661 2.28072 8.3653 2.33272 7.49329C2.33272 5.9189 2.9655 4.409 4.09187 3.29574C5.21823 2.18248 6.74591 1.55706 8.33883 1.55706C9.93175 1.55706 11.4594 2.18248 12.5858 3.29574C13.7122 4.409 14.3449 5.9189 14.3449 7.49329C14.3961 8.36594 14.2298 9.23767 13.8607 10.032C13.4915 10.8264 12.9309 11.5191 12.2278 12.0493C11.4245 12.7914 10.5911 13.5334 10.5911 14.9136H12.0927C12.0927 14.2309 12.4906 13.8376 13.2488 13.1401C14.1032 12.4693 14.7841 11.6076 15.2357 10.6259C15.6873 9.64421 15.8966 8.57056 15.8465 7.49329C15.8465 6.51884 15.6523 5.55394 15.275 4.65367C14.8977 3.75339 14.3447 2.93539 13.6475 2.24635C12.9504 1.55731 12.1227 1.01074 11.2119 0.637834C10.301 0.26493 9.32475 0.072998 8.33883 0.072998Z" fill="#1DD3B0"/>
</svg>
