<svg width="53" height="54" viewBox="0 0 53 54" fill="none" xmlns="http://www.w3.org/2000/svg">
<path d="M49.0743 0.380127H3.91243C1.75268 0.380127 0 2.09159 0 4.19907V49.556C0 51.6665 1.75268 53.3801 3.91243 53.3801H49.0743C51.2355 53.3801 53 51.6665 53 49.556V4.19907C53 2.09159 51.2355 0.380127 49.0743 0.380127ZM15.7189 45.5435H7.85431V20.2514H15.7189V45.5435ZM11.7866 16.7932C11.188 16.7932 10.5952 16.6752 10.0422 16.4461C9.48921 16.2169 8.98677 15.881 8.56362 15.4576C8.14047 15.0342 7.8049 14.5315 7.57608 13.9783C7.34727 13.4252 7.2297 12.8323 7.23008 12.2337C7.23008 11.0254 7.71011 9.86648 8.56455 9.01203C9.419 8.15759 10.5779 7.67756 11.7862 7.67756C12.9946 7.67756 14.1535 8.15759 15.0079 9.01203C15.8624 9.86648 16.3424 11.0254 16.3424 12.2337C16.3424 13.4423 15.8625 14.6015 15.0083 15.4565C14.154 16.3114 12.9952 16.7922 11.7866 16.7932ZM45.1604 45.5435H37.3083V33.2445C37.3083 30.3104 37.2509 26.5378 33.2222 26.5378C29.1309 26.5378 28.5074 29.7333 28.5074 33.0318V45.5442H20.6494V20.2514H28.1908V23.7053H28.2983C29.348 21.7178 31.9126 19.6206 35.7375 19.6206C43.6919 19.6206 45.1612 24.8573 45.1612 31.67L45.1604 45.5435Z" fill="#B5B5B5"/>
</svg>

