<svg width="17" height="18" viewBox="0 0 17 18" fill="none" xmlns="http://www.w3.org/2000/svg">
<path d="M15.5434 0.283691H1.28413C0.602215 0.283691 0.0488281 0.824063 0.0488281 1.48948V15.8104C0.0488281 16.4767 0.602215 17.0178 1.28413 17.0178H15.5434C16.2258 17.0178 16.7829 16.4767 16.7829 15.8104V1.48948C16.7829 0.824063 16.2258 0.283691 15.5434 0.283691ZM5.01188 14.5435H2.52873V6.55781H5.01188V14.5435ZM3.7703 5.46591C3.5813 5.46591 3.39414 5.42867 3.21953 5.35631C3.04493 5.28395 2.88629 5.1779 2.75268 5.04421C2.61908 4.91052 2.51313 4.75181 2.44088 4.57716C2.36864 4.4025 2.33151 4.21532 2.33164 4.02632C2.33164 3.64479 2.4832 3.27889 2.75298 3.00911C3.02276 2.73933 3.38866 2.58777 3.77019 2.58777C4.15171 2.58777 4.51762 2.73933 4.7874 3.00911C5.05718 3.27889 5.20874 3.64479 5.20874 4.02632C5.20874 4.40792 5.05723 4.77391 4.7875 5.04385C4.51778 5.3138 4.15191 5.46561 3.7703 5.46591ZM14.3077 14.5435H11.8285V10.6602C11.8285 9.7338 11.8103 8.54266 10.5383 8.54266C9.24653 8.54266 9.04968 9.55159 9.04968 10.5931V14.5437H6.56861V6.55781H8.94974V7.64832H8.98367C9.3151 7.02079 10.1248 6.35863 11.3325 6.35863C13.844 6.35863 14.3079 8.01205 14.3079 10.1631L14.3077 14.5435Z" fill="#B5B5B5"/>
</svg>
