<svg width="26" height="26" viewBox="0 0 26 26" fill="none" xmlns="http://www.w3.org/2000/svg">
<path d="M0 1.86225C0 0.833625 0.85475 0 1.90937 0H24.0906C25.1453 0 26 0.833625 26 1.86225V24.1378C26 25.1664 25.1453 26 24.0906 26H1.90937C0.85475 26 0 25.1664 0 24.1378V1.86225ZM8.03238 21.7653V10.0246H4.13075V21.7653H8.03238ZM6.08238 8.42075C7.4425 8.42075 8.28913 7.5205 8.28913 6.39275C8.26475 5.24062 7.44413 4.36475 6.10838 4.36475C4.77262 4.36475 3.9 5.24225 3.9 6.39275C3.9 7.5205 4.74663 8.42075 6.05638 8.42075H6.08238ZM14.0579 21.7653V15.2084C14.0579 14.8574 14.0839 14.5064 14.1879 14.2561C14.469 13.5557 15.1109 12.8294 16.1899 12.8294C17.602 12.8294 18.1659 13.9051 18.1659 15.4846V21.7653H22.0675V15.0312C22.0675 11.4237 20.1435 9.74675 17.576 9.74675C15.5057 9.74675 14.5779 10.8842 14.0579 11.6854V11.726H14.0319C14.0405 11.7124 14.0492 11.6989 14.0579 11.6854V10.0246H10.1579C10.2066 11.1264 10.1579 21.7653 10.1579 21.7653H14.0579Z" fill="#85E29C"/>
</svg>
