<svg width="26" height="26" viewBox="0 0 26 26" fill="none" xmlns="http://www.w3.org/2000/svg">
<path d="M21.6667 8.15885C21.0347 8.44097 20.352 8.63281 19.6185 8.73438C20.3859 8.28299 20.9106 7.62283 21.1927 6.75391C20.4592 7.18273 19.7031 7.47049 18.9245 7.61719C18.2361 6.8724 17.3728 6.5 16.3346 6.5C15.3529 6.5 14.515 6.84701 13.821 7.54102C13.127 8.23503 12.7799 9.07292 12.7799 10.0547C12.7799 10.3819 12.8082 10.6528 12.8646 10.8672C11.4089 10.7882 10.0434 10.4214 8.76823 9.76693C7.49306 9.11241 6.40972 8.23785 5.51823 7.14323C5.19097 7.70747 5.02734 8.30556 5.02734 8.9375C5.02734 10.224 5.5408 11.2114 6.56771 11.8997C6.03733 11.8885 5.47309 11.7418 4.875 11.4596V11.4935C4.875 12.3398 5.15712 13.0931 5.72135 13.7533C6.28559 14.4134 6.9796 14.8225 7.80339 14.9805C7.47613 15.0707 7.18837 15.1159 6.9401 15.1159C6.7934 15.1159 6.57335 15.0933 6.27995 15.0482C6.51693 15.7591 6.93728 16.3459 7.54102 16.8086C8.14475 17.2713 8.8303 17.5082 9.59766 17.5195C8.28863 18.5352 6.81597 19.043 5.17969 19.043C4.88628 19.043 4.60417 19.026 4.33333 18.9922C6.00347 20.053 7.82031 20.5833 9.78385 20.5833C11.0477 20.5833 12.2326 20.383 13.3385 19.9824C14.4444 19.5818 15.3924 19.0458 16.1823 18.3743C16.9722 17.7029 17.6521 16.9299 18.222 16.0553C18.7919 15.1808 19.2151 14.2667 19.4915 13.3132C19.768 12.3596 19.9062 11.4089 19.9062 10.4609C19.9062 10.2578 19.9006 10.1055 19.8893 10.0039C20.6003 9.49609 21.1927 8.88108 21.6667 8.15885ZM26 4.875V21.125C26 22.4679 25.5232 23.6161 24.5697 24.5697C23.6161 25.5232 22.4679 26 21.125 26H4.875C3.53212 26 2.3839 25.5232 1.43034 24.5697C0.47678 23.6161 0 22.4679 0 21.125V4.875C0 3.53212 0.47678 2.3839 1.43034 1.43034C2.3839 0.47678 3.53212 0 4.875 0H21.125C22.4679 0 23.6161 0.47678 24.5697 1.43034C25.5232 2.3839 26 3.53212 26 4.875Z" fill="#85E29C"/>
</svg>
