<svg width="293" height="72" viewBox="0 0 293 72" fill="none" xmlns="http://www.w3.org/2000/svg">
<path d="M69.8473 24.8517H80.3293C84.6728 24.8517 87.7694 25.4957 89.6192 26.7836C91.469 28.0716 92.3938 29.9214 92.3938 32.3329C92.3938 33.6483 92.1541 34.765 91.6745 35.683C91.2086 36.6011 90.6126 37.3273 89.8864 37.8617C89.1739 38.396 88.4408 38.7591 87.6872 38.951V39.1565C88.5094 39.362 89.3246 39.7046 90.133 40.1841C90.9551 40.65 91.6334 41.3556 92.1678 42.3011C92.7158 43.2328 92.9899 44.5002 92.9899 46.1034C92.9899 47.9257 92.524 49.4946 91.5923 50.81C90.6743 52.1254 89.3589 53.1393 87.6461 53.8518C85.9334 54.5506 83.8987 54.9 81.5419 54.9H69.8473V24.8517ZM77.9657 36.3818H80.4115C81.7543 36.3818 82.6997 36.1078 83.2478 35.5597C83.7959 34.998 84.0699 34.3197 84.0699 33.525C84.0699 32.7029 83.7548 32.0794 83.1245 31.6547C82.5079 31.2162 81.5488 30.997 80.2471 30.997H77.9657V36.3818ZM77.9657 42.3216V48.6314H80.8226C82.2339 48.6314 83.2204 48.3299 83.7822 47.727C84.344 47.1105 84.6249 46.3431 84.6249 45.4251C84.6249 44.8907 84.5015 44.3906 84.2549 43.9248C84.022 43.4452 83.6178 43.0615 83.0423 42.7738C82.4668 42.4723 81.6721 42.3216 80.6581 42.3216H77.9657ZM120.387 31.6136V54.9H114.324L113.317 52.002H112.844C112.364 52.783 111.755 53.4202 111.015 53.9135C110.289 54.393 109.48 54.7424 108.59 54.9617C107.699 55.1946 106.774 55.3111 105.815 55.3111C104.294 55.3111 102.917 55.0165 101.684 54.4273C100.464 53.8381 99.4914 52.9132 98.7652 51.6526C98.0527 50.3921 97.6965 48.7684 97.6965 46.7816V31.6136H105.733V44.3358C105.733 45.843 105.945 46.994 106.37 47.7887C106.808 48.5697 107.521 48.9602 108.507 48.9602C109.521 48.9602 110.302 48.6862 110.85 48.1381C111.412 47.59 111.803 46.7816 112.022 45.7129C112.241 44.6441 112.351 43.3424 112.351 41.8078V31.6136H120.387ZM123.12 31.6136H131.588L135.534 44.973C135.589 45.1648 135.644 45.4046 135.699 45.6923C135.754 45.9663 135.802 46.2609 135.843 46.5761C135.884 46.8912 135.911 47.1995 135.925 47.501H136.089C136.158 46.9392 136.233 46.4528 136.315 46.0417C136.411 45.6169 136.5 45.2744 136.583 45.0141L140.631 31.6136H148.832L139.624 56.3798C138.912 58.2707 138.083 59.8532 137.137 61.1275C136.206 62.4155 135.048 63.3815 133.664 64.0255C132.294 64.6832 130.588 65.012 128.546 65.012C127.806 65.012 127.169 64.9709 126.635 64.8887C126.114 64.8202 125.655 64.7448 125.258 64.6626V58.3529C125.559 58.4077 125.929 58.4625 126.368 58.5173C126.806 58.5721 127.265 58.5995 127.745 58.5995C128.635 58.5995 129.355 58.4214 129.903 58.0651C130.465 57.7089 130.924 57.2362 131.28 56.647C131.636 56.0715 131.944 55.4481 132.205 54.7767L132.287 54.5711L123.12 31.6136ZM171.81 54.9L168.111 45.3635H156.067L152.388 54.9H148.853L160.609 24.7284H163.753L175.428 54.9H171.81ZM167.062 42.26L163.548 32.7851C163.466 32.5385 163.329 32.1342 163.137 31.5725C162.959 31.0107 162.774 30.4284 162.582 29.8255C162.39 29.2226 162.233 28.7362 162.109 28.3662C161.972 28.928 161.821 29.4898 161.657 30.0516C161.506 30.5996 161.356 31.1135 161.205 31.593C161.054 32.0589 160.924 32.4562 160.814 32.7851L157.238 42.26H167.062ZM189.753 31.963C192.425 31.963 194.446 32.6207 195.816 33.9361C197.186 35.2377 197.871 37.3341 197.871 40.2252V54.9H194.501V40.4513C194.501 38.5742 194.069 37.1697 193.206 36.238C192.356 35.3062 191.048 34.8404 189.28 34.8404C186.786 34.8404 185.033 35.546 184.019 36.9573C183.005 38.3686 182.498 40.4171 182.498 43.1026V54.9H179.086V32.374H181.84L182.354 35.6214H182.539C183.018 34.8267 183.628 34.1621 184.368 33.6278C185.108 33.0797 185.937 32.6686 186.855 32.3946C187.773 32.1068 188.739 31.963 189.753 31.963ZM204.551 54.9V24.8517H212.71V54.9H204.551ZM225.988 55.3111C223.59 55.3111 221.617 54.2903 220.068 52.2487C218.52 50.2071 217.746 47.2201 217.746 43.2876C217.746 39.3141 218.541 36.3065 220.13 34.2649C221.719 32.2233 223.775 31.2025 226.296 31.2025C227.337 31.2025 228.235 31.3532 228.988 31.6547C229.742 31.9561 230.393 32.3672 230.941 32.8879C231.503 33.3948 231.989 33.9703 232.4 34.6143H232.565C232.469 34.0251 232.38 33.2167 232.297 32.1891C232.215 31.1477 232.174 30.1338 232.174 29.1472V22.9197H240.272V54.9H234.209L232.482 51.9609H232.174C231.804 52.5775 231.338 53.1393 230.776 53.6463C230.228 54.1532 229.557 54.5574 228.762 54.8589C227.981 55.1603 227.056 55.3111 225.988 55.3111ZM229.276 48.9602C230.564 48.9602 231.468 48.556 231.989 47.7476C232.523 46.9255 232.811 45.6786 232.852 44.007V43.3698C232.852 41.5338 232.592 40.1293 232.071 39.1565C231.564 38.1699 230.605 37.6767 229.194 37.6767C228.235 37.6767 227.44 38.1425 226.81 39.0743C226.179 40.006 225.864 41.4516 225.864 43.4109C225.864 45.3429 226.179 46.7542 226.81 47.6448C227.454 48.5217 228.276 48.9602 229.276 48.9602ZM256.324 31.2025C258.584 31.2025 260.537 31.5999 262.181 32.3946C263.825 33.1756 265.093 34.354 265.984 35.9297C266.874 37.5054 267.319 39.4785 267.319 41.8489V45.4251H252.953C253.021 46.6446 253.474 47.6448 254.309 48.4258C255.159 49.2068 256.406 49.5973 258.05 49.5973C259.503 49.5973 260.832 49.4535 262.037 49.1657C263.257 48.878 264.511 48.4327 265.799 47.8298V53.6052C264.675 54.1943 263.449 54.626 262.12 54.9C260.79 55.174 259.112 55.3111 257.084 55.3111C254.741 55.3111 252.645 54.8931 250.795 54.0573C248.945 53.2215 247.486 51.9267 246.417 50.1728C245.362 48.419 244.835 46.165 244.835 43.4109C244.835 40.6157 245.314 38.3207 246.273 36.5257C247.232 34.7171 248.575 33.3811 250.302 32.5179C252.028 31.641 254.035 31.2025 256.324 31.2025ZM256.611 36.6696C255.666 36.6696 254.871 36.971 254.227 37.5739C253.597 38.1631 253.227 39.0948 253.117 40.3691H260.023C260.009 39.684 259.872 39.0606 259.612 38.4988C259.352 37.937 258.968 37.4917 258.461 37.1629C257.968 36.834 257.351 36.6696 256.611 36.6696ZM283.227 31.2025C286.173 31.2025 288.475 31.9356 290.133 33.4017C291.791 34.8541 292.62 36.9299 292.62 39.6292V54.9H287.05L285.509 51.8171H285.344C284.687 52.6392 284.008 53.3106 283.31 53.8312C282.625 54.3382 281.837 54.7082 280.946 54.9411C280.055 55.1877 278.966 55.3111 277.678 55.3111C276.335 55.3111 275.13 55.037 274.061 54.4889C272.992 53.9409 272.149 53.1119 271.533 52.002C270.916 50.8922 270.608 49.4877 270.608 47.7887C270.608 45.2949 271.471 43.4452 273.198 42.2394C274.924 41.0336 277.425 40.3554 280.699 40.2047L284.584 40.0814V39.7525C284.584 38.7112 284.324 37.9713 283.803 37.5328C283.296 37.0943 282.611 36.8751 281.748 36.8751C280.83 36.8751 279.802 37.0395 278.665 37.3684C277.541 37.6835 276.411 38.0946 275.273 38.6016L272.951 33.2989C274.294 32.6138 275.815 32.0931 277.514 31.7369C279.213 31.3806 281.117 31.2025 283.227 31.2025ZM284.625 44.5002L282.775 44.5824C281.295 44.6373 280.254 44.8976 279.651 45.3635C279.062 45.8156 278.767 46.4665 278.767 47.316C278.767 48.1107 278.98 48.6999 279.405 49.0835C279.829 49.4535 280.391 49.6385 281.09 49.6385C282.063 49.6385 282.892 49.3302 283.577 48.7136C284.276 48.097 284.625 47.2954 284.625 46.3089V44.5002Z" fill="#FFFDFD"/>
<path d="M25.4446 51.205H44.9906V55.0062H25.4446V51.205ZM29.3538 58.8074H41.0814V62.6087H29.3538V58.8074ZM35.2176 9.3913C30.0337 9.3913 25.0621 11.3937 21.3965 14.9581C17.7309 18.5224 15.6716 23.3567 15.6716 28.3975C15.5394 31.1597 16.0836 33.913 17.2593 36.4309C18.435 38.9487 20.2087 41.1591 22.4345 42.8802C24.3891 44.6478 25.4446 45.6551 25.4446 47.4037H29.3538C29.3538 43.9066 27.1842 41.9489 25.0732 40.0673C23.2464 38.707 21.7904 36.9318 20.8329 34.8973C19.8753 32.8628 19.4454 30.6311 19.5808 28.3975C19.5808 24.3649 21.2282 20.4975 24.1607 17.646C27.0932 14.7945 31.0705 13.1925 35.2176 13.1925C39.3647 13.1925 43.342 14.7945 46.2745 17.646C49.207 20.4975 50.8544 24.3649 50.8544 28.3975C50.9875 30.6327 50.5546 32.8655 49.5936 34.9002C48.6326 36.9348 47.1729 38.709 45.3424 40.0673C43.251 41.9679 41.0814 43.8686 41.0814 47.4037H44.9906C44.9906 45.6551 46.0265 44.6478 48.0007 42.8612C50.2249 41.143 51.9978 38.9359 53.1735 36.4214C54.3493 33.9068 54.8942 31.1568 54.7636 28.3975C54.7636 25.9016 54.258 23.4301 53.2758 21.1241C52.2935 18.8182 50.8537 16.723 49.0387 14.9581C47.2237 13.1932 45.069 11.7932 42.6975 10.8381C40.3261 9.88291 37.7844 9.3913 35.2176 9.3913Z" fill="#FFFDFD"/>
</svg>
