<?xml version="1.0" encoding="UTF-8"?><svg xmlns="http://www.w3.org/2000/svg" viewBox="0 0 565.29 155.37"><defs><style>.d{fill:#333;}</style></defs><g id="a"/><g id="b"><g id="c"><g><g><path class="d" d="M134.1,50.45h20.75c8.88,0,15.59,1.25,20.15,3.74,4.56,2.49,6.84,6.87,6.84,13.13,0,2.52-.4,4.8-1.21,6.84-.81,2.04-1.97,3.71-3.49,5.02-1.52,1.31-3.37,2.16-5.56,2.55v.46c2.22,.46,4.22,1.24,6.02,2.35,1.79,1.11,3.23,2.72,4.31,4.83,1.08,2.11,1.62,4.92,1.62,8.41,0,4.04-.99,7.51-2.96,10.4-1.98,2.89-4.79,5.1-8.46,6.63-3.66,1.54-8.02,2.3-13.06,2.3h-24.94V50.45Zm14.13,26.4h8.21c4.1,0,6.95-.65,8.53-1.94,1.58-1.29,2.37-3.2,2.37-5.72s-.93-4.38-2.8-5.49c-1.87-1.11-4.83-1.66-8.87-1.66h-7.43v14.82Zm0,11.22v17.37h9.21c4.26,0,7.22-.82,8.89-2.46,1.67-1.64,2.51-3.85,2.51-6.61,0-1.64-.36-3.08-1.09-4.33-.73-1.25-1.95-2.22-3.67-2.92-1.72-.7-4.08-1.05-7.09-1.05h-8.75Z"/><path class="d" d="M236.92,66.13v50.98h-10.67l-1.87-6.52h-.73c-1.09,1.73-2.46,3.15-4.1,4.24s-3.45,1.9-5.43,2.42c-1.98,.52-4.03,.78-6.16,.78-3.65,0-6.82-.65-9.53-1.94-2.71-1.29-4.81-3.31-6.31-6.04-1.51-2.74-2.26-6.29-2.26-10.67v-33.24h13.91v29.77c0,3.65,.65,6.4,1.96,8.25s3.39,2.78,6.25,2.78,5.05-.65,6.66-1.94c1.61-1.29,2.74-3.19,3.4-5.7,.65-2.51,.98-5.57,.98-9.19v-23.98h13.91Z"/><path class="d" d="M238.61,66.13h15.23l9.62,28.68c.3,.91,.56,1.84,.78,2.78,.21,.94,.39,1.92,.55,2.92,.15,1,.27,2.05,.37,3.15h.27c.18-1.64,.43-3.18,.75-4.6,.32-1.43,.72-2.84,1.21-4.24l9.44-28.68h14.91l-21.57,57.5c-1.31,3.53-3.01,6.47-5.11,8.82-2.1,2.35-4.51,4.13-7.23,5.31-2.72,1.19-5.71,1.78-8.96,1.78-1.58,0-2.95-.08-4.1-.25-1.16-.17-2.14-.34-2.96-.52v-11.03c.64,.15,1.44,.29,2.42,.41,.97,.12,1.99,.18,3.05,.18,1.95,0,3.62-.41,5.02-1.23,1.4-.82,2.57-1.92,3.51-3.31,.94-1.38,1.69-2.9,2.23-4.54l.82-2.51-20.24-50.61Z"/><path class="d" d="M337.24,117.11l-9.07-23.57h-28l-9.26,23.57h-4.79l26.22-66.89h4.29l25.53,66.89h-4.92Zm-10.58-27.81l-9.21-24.99c-.24-.64-.54-1.46-.89-2.46-.35-1-.71-2.07-1.09-3.19-.38-1.12-.75-2.19-1.12-3.19-.3,1.06-.64,2.13-1,3.19-.37,1.06-.71,2.09-1.05,3.08-.33,.99-.65,1.88-.96,2.67l-9.58,24.9h24.89Z"/><path class="d" d="M366.65,66.59c5.56,0,9.83,1.46,12.81,4.38,2.98,2.92,4.47,7.49,4.47,13.72v32.42h-4.56v-32.14c0-4.92-1.12-8.54-3.38-10.85-2.25-2.31-5.52-3.47-9.8-3.47-5.44,0-9.6,1.59-12.47,4.76-2.87,3.18-4.31,7.97-4.31,14.39v27.31h-4.6v-49.56h3.74l.68,9.03h.27c.88-1.85,2.09-3.53,3.62-5.04,1.53-1.5,3.43-2.71,5.68-3.6,2.25-.9,4.86-1.34,7.84-1.34Z"/><path class="d" d="M394.52,117.11V50.45h14.13V117.11h-14.13Z"/><path class="d" d="M434.88,118.02c-5.68,0-10.31-2.23-13.88-6.68-3.57-4.45-5.36-11-5.36-19.63s1.81-15.33,5.43-19.81c3.62-4.48,8.34-6.73,14.18-6.73,2.43,0,4.57,.33,6.43,1,1.85,.67,3.46,1.57,4.81,2.69s2.5,2.39,3.44,3.78h.46c-.18-.97-.4-2.41-.66-4.31-.26-1.9-.39-3.85-.39-5.86v-16.32h13.95V117.11h-10.67l-2.69-6.61h-.59c-.88,1.4-1.98,2.67-3.3,3.81-1.32,1.14-2.9,2.04-4.72,2.71-1.82,.67-3.97,1-6.43,1Zm4.88-11.08c3.8,0,6.48-1.13,8.05-3.4,1.57-2.26,2.39-5.68,2.48-10.24v-1.5c0-4.95-.76-8.75-2.28-11.38-1.52-2.63-4.35-3.94-8.48-3.94-3.07,0-5.47,1.32-7.2,3.97-1.73,2.64-2.6,6.46-2.6,11.44s.87,8.74,2.62,11.26c1.75,2.52,4.22,3.78,7.41,3.78Z"/><path class="d" d="M493.24,65.18c4.71,0,8.77,.9,12.17,2.71,3.4,1.81,6.03,4.43,7.89,7.87,1.85,3.44,2.78,7.63,2.78,12.58v6.75h-32.87c.15,3.92,1.33,7,3.53,9.23,2.2,2.23,5.27,3.35,9.19,3.35,3.25,0,6.23-.33,8.94-1,2.71-.67,5.49-1.67,8.34-3.01v10.76c-2.52,1.25-5.16,2.16-7.91,2.74-2.75,.58-6.09,.87-10.01,.87-5.11,0-9.63-.94-13.56-2.83-3.94-1.88-7.02-4.76-9.26-8.62-2.23-3.86-3.35-8.72-3.35-14.59s1.01-10.92,3.03-14.89,4.84-6.95,8.46-8.94c3.62-1.99,7.83-2.99,12.63-2.99Zm.09,9.89c-2.71,0-4.95,.87-6.73,2.6-1.78,1.73-2.8,4.45-3.08,8.16h19.52c-.03-2.07-.4-3.91-1.12-5.52-.71-1.61-1.78-2.89-3.19-3.83-1.41-.94-3.21-1.41-5.4-1.41Z"/><path class="d" d="M542.67,65.08c6.84,0,12.08,1.49,15.73,4.47,3.65,2.98,5.47,7.51,5.47,13.59v33.97h-9.71l-2.69-6.93h-.37c-1.46,1.82-2.95,3.31-4.47,4.47s-3.27,2.01-5.24,2.55c-1.98,.55-4.38,.82-7.2,.82-3.01,0-5.71-.58-8.09-1.73-2.39-1.15-4.26-2.93-5.63-5.31s-2.05-5.42-2.05-9.1c0-5.41,1.9-9.4,5.7-11.97,3.8-2.57,9.5-3.99,17.1-4.26l8.85-.27v-2.23c0-2.67-.7-4.63-2.1-5.88-1.4-1.25-3.34-1.87-5.84-1.87s-4.88,.35-7.25,1.05c-2.37,.7-4.74,1.58-7.11,2.64l-4.6-9.39c2.71-1.43,5.74-2.55,9.1-3.37,3.36-.82,6.83-1.23,10.42-1.23Zm7.39,28.41l-5.38,.18c-4.5,.12-7.62,.93-9.37,2.42s-2.62,3.45-2.62,5.88c0,2.13,.62,3.64,1.87,4.54,1.25,.9,2.87,1.35,4.88,1.35,2.98,0,5.49-.88,7.54-2.64,2.05-1.76,3.08-4.27,3.08-7.52v-4.19Z"/></g><g><g><g><path class="d" d="M65.2,147.04h-19.42c-2.3,0-4.16,1.86-4.16,4.16s1.86,4.16,4.16,4.16h19.42c2.3,0,4.16-1.86,4.16-4.16s-1.86-4.16-4.16-4.16Z"/><path class="d" d="M73.52,134.56H37.45c-2.3,0-4.16,1.86-4.16,4.16s1.86,4.16,4.16,4.16h36.07c2.3,0,4.16-1.86,4.16-4.16s-1.86-4.16-4.16-4.16Z"/><path class="d" d="M74.35,114.42l-26.77,15.46c-.25,.14-.15,.52,.14,.52h25.8c2.3,0,4.16-1.86,4.16-4.16v-9.89c0-1.71-1.85-2.78-3.33-1.92Z"/></g><path class="d" d="M103.47,27.47C87.94,.98,53.79-7.94,27.25,7.74,1.11,23.19-7.77,57.07,7.42,83.37c5.3,9.17,12.81,16.25,21.48,20.98,2.7,1.47,4.41,4.28,4.41,7.35v17.02c0,1.71,1.85,2.78,3.33,1.93l46.28-26.72c26.64-15.38,36.11-49.91,20.55-76.45Zm-2.42,39.98c-3.3,12.48-11.22,22.87-22.3,29.27l-37.13,21.43v-6.45c0-6.1-3.35-11.72-8.75-14.66-7.59-4.14-13.9-10.3-18.25-17.83C1.72,56.87,9.29,28.03,31.49,14.91c7.29-4.31,15.59-6.59,23.99-6.59s16.13,2.1,23.21,6.06c7.27,4.08,13.36,10.06,17.6,17.29,6.32,10.78,8.01,23.49,4.76,35.77Z"/></g><path class="d" d="M39.81,67.6c5.79,3.6,10.81,5.72,16.58,5.72,4.45,0,6.79-1.56,6.79-4.19,0-7.69-26.84-6.33-26.84-23.26,0-9.31,7.94-15.33,20.24-15.33,8.43,0,14.07,3.23,18.61,7.81l-6.7,7.76c-4.34-3.05-7.72-4.65-12.79-4.65-4.11,0-6.38,1.55-6.38,4.22,0,6.53,26.84,5.73,26.84,22.5,0,9.1-7.71,16.07-21.76,16.07-6.55,0-15.08-2.78-20.51-7.47l5.91-9.18Zm11.66-48.76h8.97v15.94h-8.97v-15.94Zm8.97,59.89v18.77h-8.97v-18.77h8.97Z"/></g></g></g></g></svg>