<svg width="36" height="33" viewBox="0 0 36 33" fill="none" xmlns="http://www.w3.org/2000/svg">
<path d="M17.1261 30.4241L16.3195 31.7358L16.3256 31.7395L17.1261 30.4241ZM18.7912 30.4241L19.5918 31.7395L19.5978 31.7358L18.7912 30.4241ZM17.9587 6.53177L16.7245 7.45265C17.0151 7.84219 17.4726 8.07165 17.9587 8.07165C18.4447 8.07165 18.9022 7.84219 19.1928 7.45265L17.9587 6.53177ZM9.82845 0.112589C4.5029 0.112589 0.158365 4.39187 0.158365 9.70332H3.23812C3.23812 6.12142 6.175 3.19234 9.82845 3.19234V0.112589ZM0.158365 9.70332C0.158365 11.7211 0.563391 15.0228 2.82609 18.9492C5.08372 22.8667 9.14233 27.3224 16.3195 31.7358L17.9327 29.1124C11.1048 24.9138 7.44948 20.8039 5.49446 17.4114C3.54449 14.0277 3.23812 11.275 3.23812 9.70332H0.158365ZM16.3256 31.7395C16.8176 32.039 17.3826 32.1974 17.9587 32.1974V29.1176C17.9474 29.1176 17.9363 29.1146 17.9267 29.1087L16.3256 31.7395ZM17.9587 32.1974C18.5347 32.1974 19.0997 32.039 19.5918 31.7395L17.9906 29.1087C17.981 29.1146 17.9699 29.1176 17.9587 29.1176V32.1974ZM19.5978 31.7358C26.775 27.3224 30.8336 22.8667 33.0912 18.9492C35.3539 15.0228 35.7589 11.7211 35.7589 9.70332H32.6792C32.6792 11.275 32.3728 14.0277 30.4228 17.4114C28.4678 20.8039 24.8125 24.9138 17.9846 29.1124L19.5978 31.7358ZM35.7589 9.70332C35.7589 4.39187 31.4144 0.112589 26.0889 0.112589V3.19234C29.7423 3.19234 32.6792 6.12142 32.6792 9.70332H35.7589ZM26.0889 0.112589C23.3079 0.112589 20.9278 1.60471 19.3574 2.90665C18.5503 3.57576 17.901 4.24134 17.4528 4.73957C17.2278 4.98968 17.0512 5.20024 16.9284 5.35153C16.8669 5.42724 16.8187 5.48831 16.7846 5.5323C16.7675 5.5543 16.7539 5.57205 16.7438 5.58525C16.7388 5.59184 16.7347 5.5973 16.7315 5.60159C16.7298 5.60373 16.7284 5.60558 16.7273 5.60713C16.7267 5.60791 16.7262 5.60861 16.7257 5.60923C16.7255 5.60955 16.7252 5.60996 16.7251 5.61012C16.7248 5.61051 16.7245 5.61088 17.9587 6.53177C19.1928 7.45265 19.1926 7.45299 19.1923 7.45331C19.1923 7.45339 19.1921 7.4537 19.1919 7.45386C19.1917 7.45419 19.1915 7.45445 19.1914 7.45463C19.1911 7.455 19.191 7.45508 19.1912 7.45488C19.1915 7.45447 19.1926 7.45293 19.1946 7.4503C19.1987 7.44503 19.206 7.43538 19.2167 7.42164C19.2381 7.39416 19.2725 7.3504 19.3193 7.2927C19.4132 7.17715 19.556 7.00651 19.7425 6.79919C20.1173 6.38255 20.6587 5.8283 21.323 5.27758C22.6953 4.13988 24.3803 3.19234 26.0889 3.19234V0.112589ZM17.9587 6.53177C19.1928 5.61088 19.1926 5.61051 19.1923 5.61012C19.1921 5.60996 19.1918 5.60955 19.1916 5.60923C19.1911 5.60861 19.1906 5.60791 19.19 5.60713C19.1889 5.60558 19.1875 5.60373 19.1859 5.60159C19.1826 5.5973 19.1785 5.59184 19.1735 5.58525C19.1634 5.57205 19.1498 5.5543 19.1327 5.5323C19.0986 5.48831 19.0504 5.42724 18.9889 5.35153C18.8661 5.20024 18.6895 4.98968 18.4645 4.73957C18.0163 4.24134 17.367 3.57576 16.5599 2.90665C14.9895 1.60471 12.6094 0.112589 9.82845 0.112589V3.19234C11.537 3.19234 13.222 4.13988 14.5943 5.27758C15.2586 5.8283 15.8 6.38255 16.1748 6.79919C16.3613 7.00651 16.5042 7.17715 16.598 7.2927C16.6448 7.3504 16.6793 7.39416 16.7006 7.42164C16.7113 7.43538 16.7187 7.44503 16.7227 7.4503C16.7247 7.45293 16.7258 7.45447 16.7261 7.45488C16.7263 7.45508 16.7262 7.455 16.726 7.45463C16.7258 7.45445 16.7256 7.45419 16.7254 7.45386C16.7253 7.4537 16.725 7.45339 16.725 7.45331C16.7247 7.45299 16.7245 7.45265 17.9587 6.53177Z" fill="#85E29C"/>
</svg>
