<svg width="22" height="22" viewBox="0 0 22 22" fill="none" xmlns="http://www.w3.org/2000/svg">
<path d="M3.271 17.346L2.68054 16.8836C2.50364 17.1094 2.47109 17.4164 2.59671 17.6744C2.72233 17.9323 2.98409 18.096 3.271 18.096V17.346ZM18.73 17.346V18.096C19.0169 18.096 19.2787 17.9323 19.4043 17.6743C19.5299 17.4163 19.4973 17.1093 19.3204 16.8834L18.73 17.346ZM11 11V11.75V11ZM11 0.25C5.06279 0.25 0.25 5.06279 0.25 11H1.75C1.75 5.89121 5.89121 1.75 11 1.75V0.25ZM0.25 11C0.25 16.9372 5.06279 21.75 11 21.75V20.25C5.89121 20.25 1.75 16.1088 1.75 11H0.25ZM11 21.75C16.9372 21.75 21.75 16.9372 21.75 11H20.25C20.25 16.1088 16.1088 20.25 11 20.25V21.75ZM21.75 11C21.75 5.06279 16.9372 0.25 11 0.25V1.75C16.1088 1.75 20.25 5.89121 20.25 11H21.75ZM3.271 17.346C3.86146 17.8085 3.8612 17.8088 3.86094 17.8091C3.86087 17.8092 3.86062 17.8095 3.86047 17.8097C3.86018 17.8101 3.85992 17.8104 3.85969 17.8107C3.85923 17.8113 3.8589 17.8117 3.8587 17.8119C3.85831 17.8124 3.85845 17.8123 3.85911 17.8114C3.86045 17.8098 3.8639 17.8056 3.8695 17.799C3.88071 17.7858 3.9005 17.7629 3.92913 17.7319C3.98639 17.6697 4.07884 17.5747 4.2084 17.4575C4.4675 17.223 4.87456 16.9003 5.44519 16.5741C6.58164 15.9245 8.38624 15.25 11 15.25V13.75C8.11376 13.75 6.05386 14.4985 4.70081 15.2719C4.02669 15.6572 3.53275 16.046 3.20204 16.3452C3.03669 16.4948 2.91204 16.6221 2.82591 16.7155C2.78284 16.7623 2.74938 16.8006 2.72525 16.8291C2.71318 16.8433 2.70345 16.8551 2.69601 16.8642C2.69229 16.8688 2.68914 16.8727 2.68657 16.8759C2.68528 16.8776 2.68413 16.879 2.68313 16.8803C2.68263 16.8809 2.68216 16.8815 2.68173 16.882C2.68151 16.8823 2.68122 16.8827 2.68111 16.8828C2.68082 16.8832 2.68054 16.8836 3.271 17.346ZM11 15.25C13.6138 15.25 15.4186 15.9245 16.5554 16.5742C17.1261 16.9003 17.5333 17.2231 17.7925 17.4576C17.9221 17.5748 18.0146 17.6698 18.0719 17.732C18.1006 17.7631 18.1204 17.7859 18.1316 17.7991C18.1372 17.8057 18.1406 17.8099 18.142 17.8116C18.1427 17.8124 18.1428 17.8126 18.1424 17.8121C18.1422 17.8118 18.1419 17.8114 18.1414 17.8108C18.1412 17.8105 18.1409 17.8102 18.1406 17.8098C18.1405 17.8096 18.1402 17.8093 18.1402 17.8092C18.1399 17.8089 18.1396 17.8086 18.73 17.346C19.3204 16.8834 19.3201 16.8831 19.3198 16.8827C19.3197 16.8826 19.3194 16.8822 19.3192 16.8819C19.3187 16.8814 19.3183 16.8808 19.3178 16.8801C19.3168 16.8789 19.3156 16.8774 19.3143 16.8758C19.3118 16.8726 19.3086 16.8687 19.3049 16.8641C19.2974 16.855 19.2877 16.8432 19.2756 16.829C19.2515 16.8005 19.218 16.7622 19.1749 16.7154C19.0888 16.622 18.9641 16.4947 18.7987 16.3451C18.4679 16.0459 17.9739 15.6572 17.2996 15.2718C15.9464 14.4985 13.8862 13.75 11 13.75V15.25ZM18.73 16.596H3.271V18.096H18.73V16.596ZM11 11.75C11.9946 11.75 12.9484 11.3549 13.6517 10.6517L12.591 9.59099C12.169 10.0129 11.5967 10.25 11 10.25V11.75ZM13.6517 10.6517C14.3549 9.94839 14.75 8.99456 14.75 8H13.25C13.25 8.59674 13.0129 9.16903 12.591 9.59099L13.6517 10.6517ZM14.75 8C14.75 7.00544 14.3549 6.05161 13.6517 5.34835L12.591 6.40901C13.0129 6.83097 13.25 7.40326 13.25 8H14.75ZM13.6517 5.34835C12.9484 4.64509 11.9946 4.25 11 4.25V5.75C11.5967 5.75 12.169 5.98705 12.591 6.40901L13.6517 5.34835ZM11 4.25C10.0054 4.25 9.05161 4.64509 8.34835 5.34835L9.40901 6.40901C9.83097 5.98705 10.4033 5.75 11 5.75V4.25ZM8.34835 5.34835C7.64509 6.05161 7.25 7.00544 7.25 8H8.75C8.75 7.40326 8.98705 6.83097 9.40901 6.40901L8.34835 5.34835ZM7.25 8C7.25 8.99456 7.64509 9.94839 8.34835 10.6517L9.40901 9.59099C8.98705 9.16903 8.75 8.59674 8.75 8H7.25ZM8.34835 10.6517C9.05161 11.3549 10.0054 11.75 11 11.75V10.25C10.4033 10.25 9.83097 10.0129 9.40901 9.59099L8.34835 10.6517Z" fill="#FFFDFD"/>
</svg>
