<svg width="26" height="26" viewBox="0 0 26 26" fill="none" xmlns="http://www.w3.org/2000/svg">
<path d="M4.74744 0C2.11757 0 0 2.11757 0 4.74743V21.2525C0 23.8824 2.11757 26 4.74744 26H13.6931V15.8356H11.0053V12.1761H13.6931V9.04962C13.6931 6.59327 15.2811 4.33793 18.9394 4.33793C20.4206 4.33793 21.5158 4.48013 21.5158 4.48013L21.4297 7.89751C21.4297 7.89751 20.3127 7.88695 19.0938 7.88695C17.7745 7.88695 17.563 8.49478 17.563 9.50384V12.1761H21.5345L21.3614 15.8356H17.563V26H21.2526C23.8824 26 26 23.8824 26 21.2526V4.74746C26 2.11759 23.8824 2.59999e-05 21.2526 2.59999e-05L4.74744 0Z" fill="#85E29C"/>
</svg>

