<svg width="42" height="59" viewBox="0 0 42 59" fill="" xmlns="http://www.w3.org/2000/svg">
<path d="M10.4871 46.2127H31.4199V50.4139H10.4871V46.2127ZM14.6737 54.615H27.2333V58.8162H14.6737V54.615ZM20.9535 0C15.4018 0 10.0775 2.2131 6.15184 6.15245C2.2262 10.0918 0.0207942 15.4347 0.0207942 21.0058C-0.120765 24.0586 0.462001 27.1016 1.72115 29.8843C2.9803 32.667 4.87984 35.11 7.26351 37.0122C9.35678 38.9657 10.4871 40.079 10.4871 42.0116H14.6737C14.6737 38.1465 12.3502 35.9829 10.0894 33.9033C8.13297 32.3999 6.57372 30.438 5.54824 28.1894C4.52277 25.9409 4.06236 23.4743 4.20734 21.0058C4.20734 16.5489 5.97166 12.2746 9.11217 9.12312C12.2527 5.97164 16.5121 4.20116 20.9535 4.20116C25.3949 4.20116 29.6543 5.97164 32.7948 9.12312C35.9353 12.2746 37.6997 16.5489 37.6997 21.0058C37.8422 23.4762 37.3786 25.9439 36.3494 28.1926C35.3202 30.4412 33.7569 32.4022 31.7966 33.9033C29.5568 36.0039 27.2333 38.1045 27.2333 42.0116H31.4199C31.4199 40.079 32.5293 38.9657 34.6435 36.9912C37.0255 35.0922 38.9242 32.6529 40.1833 29.8738C41.4425 27.0947 42.0261 24.0554 41.8862 21.0058C41.8862 18.2473 41.3448 15.5158 40.2928 12.9672C39.2408 10.4187 37.6989 8.10302 35.7552 6.15245C33.8114 4.20188 31.5038 2.65461 28.9641 1.59897C26.4244 0.543331 23.7024 0 20.9535 0Z" fill="#5CCF68" fill-opacity="0.9"/>
</svg>
