<svg width="61" height="61" viewBox="0 0 61 61" fill="none" xmlns="http://www.w3.org/2000/svg">
<path d="M17.7916 43.2414L29.008 43.2033L53.4893 18.9558C54.4501 17.995 54.9788 16.7191 54.9788 15.3619C54.9788 14.0046 54.4501 12.7287 53.4893 11.7679L49.4583 7.73685C47.5368 5.81535 44.1843 5.82552 42.278 7.72922L17.7916 31.9818V43.2414ZM45.8643 11.3308L49.903 15.3542L45.844 19.3751L41.8129 15.3466L45.8643 11.3308ZM22.875 34.1016L38.2012 18.9202L42.2323 22.9513L26.9086 38.1276L22.875 38.1403V34.1016Z" fill="url(#paint0_linear_170_822)"/>
<path d="M12.7083 53.375H48.2917C51.0951 53.375 53.375 51.0951 53.375 48.2917V26.2605L48.2917 31.3438V48.2917H20.7349C20.6688 48.2917 20.6002 48.3171 20.5341 48.3171C20.4503 48.3171 20.3664 48.2942 20.28 48.2917H12.7083V12.7083H30.1111L35.1945 7.625H12.7083C9.90488 7.625 7.625 9.90488 7.625 12.7083V48.2917C7.625 51.0951 9.90488 53.375 12.7083 53.375Z" fill="url(#paint1_linear_170_822)"/>
<defs>
<linearGradient id="paint0_linear_170_822" x1="88.2088" y1="6.29862" x2="-10.3581" y2="9.72396" gradientUnits="userSpaceOnUse">
<stop stop-color="#00B0FF"/>
<stop offset="1" stop-color="#5CCF68" stop-opacity="0.9"/>
</linearGradient>
<linearGradient id="paint1_linear_170_822" x1="94.2567" y1="7.62504" x2="-27.0086" y2="11.8115" gradientUnits="userSpaceOnUse">
<stop stop-color="#00B0FF"/>
<stop offset="1" stop-color="#5CCF68" stop-opacity="0.9"/>
</linearGradient>
</defs>
</svg>
